<svg width="448" height="396" viewBox="0 0 448 396" fill="none" xmlns="http://www.w3.org/2000/svg">
<path d="M236.113 212.228C236.645 211.405 237.345 210.704 238.168 210.171C238.99 209.637 239.916 209.283 240.885 209.132C241.853 208.981 242.843 209.037 243.789 209.295C244.735 209.553 245.615 210.008 246.373 210.63C246.612 210.828 246.837 211.042 247.046 211.272L274.399 207.291L275.921 186.73C276.038 185.153 276.776 183.686 277.974 182.653C279.173 181.62 280.732 181.105 282.31 181.222C283.888 181.338 285.355 182.077 286.389 183.274C287.422 184.472 287.937 186.031 287.821 187.609C287.818 187.645 287.815 187.682 287.811 187.718L285.145 216.569L285.132 216.633C284.785 217.742 284.09 218.71 283.149 219.393C282.208 220.075 281.073 220.437 279.91 220.423L247.737 219.868C247.612 220.058 247.478 220.242 247.334 220.419C246.711 221.176 245.936 221.793 245.058 222.23C244.18 222.667 243.22 222.914 242.241 222.954C241.261 222.994 240.284 222.827 239.374 222.463C238.463 222.099 237.64 221.547 236.958 220.843C236.819 220.701 236.688 220.555 236.564 220.404C235.637 219.262 235.094 217.857 235.013 216.389C234.932 214.921 235.317 213.465 236.113 212.228V212.228Z" fill="#FFB7B7"/>
<path d="M291.259 387.536L283.457 387.535L279.746 357.455L291.26 357.456L291.259 387.536Z" fill="#FFB7B7"/>
<path d="M293.248 395.095L268.093 395.094V394.776C268.094 392.18 269.125 389.691 270.961 387.856C272.797 386.02 275.288 384.989 277.884 384.989H277.885L293.249 384.99L293.248 395.095Z" fill="#2F2E41"/>
<path d="M345.773 380.466L338.389 382.982L325.161 355.711L336.059 351.996L345.773 380.466Z" fill="#FFB7B7"/>
<path d="M350.097 386.978L326.289 395.095L326.186 394.794C325.348 392.337 325.52 389.648 326.665 387.319C327.81 384.989 329.834 383.209 332.292 382.371L332.292 382.371L346.834 377.413L350.097 386.978Z" fill="#2F2E41"/>
<path d="M299.849 124.53C299.849 124.53 292.085 121.966 287.093 132.22C282.101 142.474 274.336 153.753 274.336 153.753L278.773 154.778C278.773 154.778 279.883 147.601 282.656 146.575L281.547 155.804C281.547 155.804 314.825 166.57 329.8 154.778L329.245 151.189C329.245 151.189 331.464 151.702 331.464 154.778L333.128 153.24C333.128 153.24 331.464 150.164 326.472 146.063C323.196 143.371 322.07 138.249 321.683 135.047C321.376 132.336 320.213 129.793 318.363 127.788C315.045 124.234 309.001 120.457 299.849 124.53Z" fill="#2F2E41"/>
<path d="M302.712 160.355C310.544 160.355 316.894 154.007 316.894 146.178C316.894 138.348 310.544 132.001 302.712 132.001C294.879 132.001 288.53 138.348 288.53 146.178C288.53 154.007 294.879 160.355 302.712 160.355Z" fill="#FFB7B7"/>
<path d="M283.802 172.028L281.224 171.169C281.224 171.169 276.066 173.317 276.066 177.183C276.066 181.05 275.207 196.516 275.207 196.516L286.81 197.804L283.802 172.028Z" fill="#CBCBCB"/>
<path d="M329.954 256.53C328.884 255.332 328.281 253.79 328.252 252.185C328.224 250.579 328.774 249.017 329.8 247.782L322.562 187.182C322.491 185.753 322.99 184.354 323.95 183.293C324.909 182.231 326.251 181.594 327.681 181.52C329.11 181.446 330.51 181.943 331.574 182.9C332.638 183.857 333.278 185.197 333.355 186.626C333.356 186.646 333.357 186.666 333.358 186.686L339.833 247.35C340.068 247.586 340.285 247.839 340.481 248.108C341 248.826 341.373 249.639 341.578 250.501C341.783 251.363 341.816 252.257 341.676 253.132C341.535 254.007 341.223 254.845 340.758 255.6C340.294 256.354 339.685 257.01 338.966 257.529C338.892 257.583 338.816 257.635 338.74 257.686C337.908 258.236 336.965 258.595 335.978 258.738C334.991 258.88 333.985 258.803 333.031 258.511C331.841 258.15 330.775 257.464 329.954 256.53Z" fill="#FFB7B7"/>
<path d="M323.324 196.516L334.928 195.227C334.928 195.227 334.068 179.761 334.068 175.895C334.068 172.028 328.911 169.88 328.911 169.88L326.332 170.739L323.324 196.516Z" fill="#CBCBCB"/>
<path d="M285.521 217.974C285.521 217.974 275.637 236.039 275.637 257.949C275.637 279.858 274.777 380.385 274.777 380.385C274.777 380.385 287.67 386.399 295.406 379.096L302.282 267.829L329.357 376.948C329.357 376.948 342.25 379.526 348.266 375.23L336.663 299.19C336.663 299.19 331.935 227.876 319.043 222.721C306.15 217.566 285.521 217.974 285.521 217.974Z" fill="#2F2E41"/>
<path d="M287.387 146.268C292.407 142.635 296.471 138.452 299.16 133.476C299.16 133.476 308.373 143.709 314.004 144.221C319.634 144.733 314.516 131.941 314.516 131.941L304.278 129.382L294.553 130.405L286.875 135.522L287.387 146.268Z" fill="#2F2E41"/>
<path d="M316.894 167.303C316.894 167.303 317.303 167.083 292.828 167.974L282.585 170.794L281.223 171.169C281.223 171.169 282.513 196.945 285.951 201.671C289.389 206.396 288.529 208.974 287.67 209.404C286.81 209.833 284.662 208.974 285.951 211.122C287.24 213.27 288.959 211.981 287.24 213.27C285.521 214.559 284.661 219.284 284.661 219.284L322.481 224.44C322.481 224.44 323.77 207.685 327.208 199.093C330.646 190.501 331.506 187.064 331.506 187.064L328.927 169.88L316.894 167.303Z" fill="#CBCBCB"/>
<path d="M244.992 94.0246H242.817V34.4691C242.817 25.3274 239.184 16.56 232.718 10.0958C226.251 3.63158 217.48 1.47362e-05 208.335 1.29604e-10L82.1117 1.29608e-10C72.9665 -2.50512e-05 64.1958 3.6315 57.7292 10.0957C51.2625 16.5599 47.6296 25.3272 47.6296 34.469V361.195C47.6296 370.337 51.2625 379.104 57.7291 385.568C64.1957 392.033 72.9663 395.664 82.1115 395.664H208.335C212.863 395.664 217.347 394.773 221.531 393.04C225.714 391.308 229.516 388.769 232.718 385.569C235.92 382.368 238.459 378.568 240.192 374.386C241.925 370.204 242.817 365.722 242.817 361.195V361.195V136.417H244.992L244.992 94.0246Z" fill="#3F3D56"/>
<path d="M235.478 34.7113V360.957C235.481 364.334 234.819 367.679 233.529 370.801C232.239 373.922 230.346 376.759 227.959 379.15C225.572 381.54 222.737 383.437 219.617 384.732C216.497 386.028 213.151 386.696 209.773 386.699H82.8972C76.0722 386.704 69.5249 383.998 64.6955 379.177C59.8661 374.357 57.1503 367.816 57.1455 360.993V34.7113C57.1431 31.3332 57.8064 27.9877 59.0974 24.8658C60.3884 21.7439 62.282 18.9068 64.6699 16.5164C67.0578 14.126 69.8933 12.2292 73.0145 10.9343C76.1357 9.63934 79.4815 8.97161 82.8609 8.96923H98.2826C97.5249 10.8261 97.2357 12.8408 97.4405 14.8358C97.6453 16.8307 98.3377 18.7447 99.4569 20.4091C100.576 22.0735 102.088 23.4372 103.858 24.38C105.629 25.3229 107.604 25.8159 109.61 25.8157H181.924C183.93 25.8159 185.906 25.3229 187.676 24.38C189.447 23.4372 190.958 22.0735 192.078 20.4091C193.197 18.7447 193.889 16.8307 194.094 14.8358C194.299 12.8408 194.01 10.8261 193.252 8.96923H209.727C216.55 8.96312 223.097 11.6669 227.926 16.4858C232.756 21.3047 235.472 27.844 235.478 34.6651V34.7113L235.478 34.7113Z" fill="white"/>
<path d="M235.478 82.9783V71.8659H218.653V10.5583C215.796 9.50338 212.773 8.96527 209.727 8.9692H207.537V71.8659H149.174V25.8158H138.058V71.8659H89.1446V8.96925H82.8972C81.2631 8.96671 79.6326 9.12114 78.028 9.43042V71.8659H57.1455V82.9783H78.028V108.682L57.1458 120.733V133.568L78.028 121.517V197.992H57.1455V209.105H78.028V319.674H57.1455V330.787H78.028V386.238C79.6326 386.547 81.2631 386.701 82.8972 386.699H89.1446V330.786H138.058V386.699H149.174V330.786H207.537V386.699H209.727C212.773 386.703 215.796 386.165 218.653 385.11V330.787H235.478V319.674H218.653V271.335H235.328V260.222H218.653V209.105H235.478V197.992H218.653V130.206H235.478V119.094H218.653V82.9784L235.478 82.9783ZM122.567 82.9783L122.567 82.9785L89.1449 102.27L89.1446 102.27V82.9783H122.567ZM89.1446 115.099L89.1449 115.099L138.058 86.868V197.992H89.1446V115.099ZM89.1446 319.674V209.105H138.058V319.674H89.1446ZM207.537 319.674H149.174V271.335H207.537V319.674ZM207.537 260.222H149.174V209.105H207.537V260.222ZM207.537 197.992H149.174V130.206H207.537V197.992ZM207.537 119.094H149.174V82.9783H207.537V119.094Z" fill="#E5E5E5"/>
<path d="M244.777 119.299C244.777 154.589 180.857 233.202 180.857 233.202C180.857 233.202 116.936 154.589 116.936 119.299C116.936 102.353 123.671 86.1006 135.658 74.1176C147.646 62.1346 163.904 55.4027 180.857 55.4027C197.81 55.4027 214.068 62.1346 226.056 74.1176C238.043 86.1006 244.777 102.353 244.777 119.299V119.299Z" fill="#1A2AB7"/>
<path d="M218.654 116.521C218.654 123.994 216.437 131.299 212.284 137.512C208.131 143.725 202.228 148.568 195.322 151.428C188.415 154.287 180.816 155.036 173.484 153.578C166.152 152.12 159.417 148.521 154.131 143.237C148.845 137.954 145.246 131.221 143.787 123.892C142.329 116.563 143.077 108.966 145.938 102.063C148.799 95.1588 153.643 89.258 159.859 85.1064C166.075 80.9548 173.382 78.7389 180.858 78.7389C185.819 78.7366 190.732 79.7112 195.316 81.6069C199.901 83.5027 204.067 86.2825 207.577 89.7877C211.086 93.2929 213.871 97.4549 215.772 102.036C217.672 106.617 218.652 111.527 218.654 116.487V116.521Z" fill="white"/>
<path d="M180.726 131.436C188.503 131.436 194.807 125.134 194.807 117.36C194.807 109.586 188.503 103.284 180.726 103.284C172.949 103.284 166.645 109.586 166.645 117.36C166.645 125.134 172.949 131.436 180.726 131.436Z" fill="#1A2AB7"/>
<path d="M201.162 149.509C195.092 153.367 188.047 155.416 180.854 155.415C173.661 155.414 166.617 153.363 160.548 149.503C161.81 145.093 164.475 141.213 168.139 138.451C171.803 135.69 176.268 134.196 180.857 134.197C185.446 134.198 189.91 135.692 193.574 138.455C197.237 141.218 199.901 145.098 201.162 149.509V149.509Z" fill="#1A2AB7"/>
<path d="M180.857 279.319C190.373 279.319 198.088 271.607 198.088 262.095C198.088 252.582 190.373 244.87 180.857 244.87C171.341 244.87 163.626 252.582 163.626 262.095C163.626 271.607 171.341 279.319 180.857 279.319Z" fill="#1A2AB7"/>
<path d="M403.499 396H0.501241C0.368303 396 0.240811 395.947 0.14681 395.854C0.0528091 395.76 0 395.633 0 395.5C0 395.367 0.0528091 395.24 0.14681 395.146C0.240811 395.053 0.368303 395 0.501241 395H403.499C403.632 395 403.759 395.053 403.853 395.146C403.947 395.24 404 395.367 404 395.5C404 395.633 403.947 395.76 403.853 395.854C403.759 395.947 403.632 396 403.499 396Z" fill="#CBCBCB"/>
</svg>
